<mxfile host="app.diagrams.net" agent="Mozilla/5.0 (Windows NT 10.0; Win64; x64) AppleWebKit/537.36 (KHTML, like Gecko) Chrome/128.0.0.0 Safari/537.36 Edg/128.0.0.0" version="27.1.3">
  <diagram name="Page-1" id="eZIK1ivtWabOAKfEmugf">
    <mxGraphModel dx="2095" dy="1825" grid="1" gridSize="10" guides="1" tooltips="1" connect="1" arrows="1" fold="1" page="1" pageScale="1" pageWidth="850" pageHeight="1100" background="#ffffff" math="0" shadow="0">
      <root>
        <mxCell id="0" />
        <mxCell id="1" parent="0" />
        <mxCell id="CWbv-JI5EEvhGblv0z73-2" value="Evento" style="swimlane;fontStyle=1;align=center;verticalAlign=top;childLayout=stackLayout;horizontal=1;startSize=26;horizontalStack=0;resizeParent=1;resizeParentMax=0;resizeLast=0;collapsible=1;marginBottom=0;whiteSpace=wrap;html=1;" vertex="1" parent="1">
          <mxGeometry x="280" y="230" width="280" height="180" as="geometry" />
        </mxCell>
        <mxCell id="CWbv-JI5EEvhGblv0z73-3" value="- pessoasAfetadas: int&lt;div&gt;- tipoEvento: String&lt;/div&gt;&lt;div&gt;- duracao: String&lt;/div&gt;&lt;div&gt;- regiao: String&lt;/div&gt;&lt;div&gt;- nivelAlerta: int&lt;/div&gt;" style="text;strokeColor=none;fillColor=none;align=left;verticalAlign=top;spacingLeft=4;spacingRight=4;overflow=hidden;rotatable=0;points=[[0,0.5],[1,0.5]];portConstraint=eastwest;whiteSpace=wrap;html=1;" vertex="1" parent="CWbv-JI5EEvhGblv0z73-2">
          <mxGeometry y="26" width="280" height="84" as="geometry" />
        </mxCell>
        <mxCell id="CWbv-JI5EEvhGblv0z73-4" value="" style="line;strokeWidth=1;fillColor=none;align=left;verticalAlign=middle;spacingTop=-1;spacingLeft=3;spacingRight=3;rotatable=0;labelPosition=right;points=[];portConstraint=eastwest;strokeColor=inherit;" vertex="1" parent="CWbv-JI5EEvhGblv0z73-2">
          <mxGeometry y="110" width="280" height="8" as="geometry" />
        </mxCell>
        <mxCell id="CWbv-JI5EEvhGblv0z73-5" value="+ classificarSeveridade(double pontuacao): String&lt;div&gt;+ calcularForca (int pessoasAfetadas): String&lt;/div&gt;" style="text;strokeColor=none;fillColor=none;align=left;verticalAlign=top;spacingLeft=4;spacingRight=4;overflow=hidden;rotatable=0;points=[[0,0.5],[1,0.5]];portConstraint=eastwest;whiteSpace=wrap;html=1;" vertex="1" parent="CWbv-JI5EEvhGblv0z73-2">
          <mxGeometry y="118" width="280" height="62" as="geometry" />
        </mxCell>
        <mxCell id="CWbv-JI5EEvhGblv0z73-10" value="Clima" style="swimlane;fontStyle=1;align=center;verticalAlign=top;childLayout=stackLayout;horizontal=1;startSize=26;horizontalStack=0;resizeParent=1;resizeParentMax=0;resizeLast=0;collapsible=1;marginBottom=0;whiteSpace=wrap;html=1;" vertex="1" parent="1">
          <mxGeometry x="-95" y="60" width="360" height="124" as="geometry" />
        </mxCell>
        <mxCell id="CWbv-JI5EEvhGblv0z73-11" value="- condicao: String&lt;div&gt;- temperatura: double&lt;/div&gt;&lt;div&gt;- umidade: double&lt;/div&gt;" style="text;strokeColor=none;fillColor=none;align=left;verticalAlign=top;spacingLeft=4;spacingRight=4;overflow=hidden;rotatable=0;points=[[0,0.5],[1,0.5]];portConstraint=eastwest;whiteSpace=wrap;html=1;" vertex="1" parent="CWbv-JI5EEvhGblv0z73-10">
          <mxGeometry y="26" width="360" height="64" as="geometry" />
        </mxCell>
        <mxCell id="CWbv-JI5EEvhGblv0z73-12" value="" style="line;strokeWidth=1;fillColor=none;align=left;verticalAlign=middle;spacingTop=-1;spacingLeft=3;spacingRight=3;rotatable=0;labelPosition=right;points=[];portConstraint=eastwest;strokeColor=inherit;" vertex="1" parent="CWbv-JI5EEvhGblv0z73-10">
          <mxGeometry y="90" width="360" height="8" as="geometry" />
        </mxCell>
        <mxCell id="CWbv-JI5EEvhGblv0z73-13" value="+ verificarCondicao(double temperatura, double umidade): String" style="text;strokeColor=none;fillColor=none;align=left;verticalAlign=top;spacingLeft=4;spacingRight=4;overflow=hidden;rotatable=0;points=[[0,0.5],[1,0.5]];portConstraint=eastwest;whiteSpace=wrap;html=1;" vertex="1" parent="CWbv-JI5EEvhGblv0z73-10">
          <mxGeometry y="98" width="360" height="26" as="geometry" />
        </mxCell>
        <mxCell id="CWbv-JI5EEvhGblv0z73-18" value="Usuario" style="swimlane;fontStyle=1;align=center;verticalAlign=top;childLayout=stackLayout;horizontal=1;startSize=26;horizontalStack=0;resizeParent=1;resizeParentMax=0;resizeLast=0;collapsible=1;marginBottom=0;whiteSpace=wrap;html=1;" vertex="1" parent="1">
          <mxGeometry x="-50" y="268" width="260" height="104" as="geometry" />
        </mxCell>
        <mxCell id="CWbv-JI5EEvhGblv0z73-19" value="- nome: String&lt;div&gt;- regiao: String&lt;/div&gt;" style="text;strokeColor=none;fillColor=none;align=left;verticalAlign=top;spacingLeft=4;spacingRight=4;overflow=hidden;rotatable=0;points=[[0,0.5],[1,0.5]];portConstraint=eastwest;whiteSpace=wrap;html=1;" vertex="1" parent="CWbv-JI5EEvhGblv0z73-18">
          <mxGeometry y="26" width="260" height="44" as="geometry" />
        </mxCell>
        <mxCell id="CWbv-JI5EEvhGblv0z73-20" value="" style="line;strokeWidth=1;fillColor=none;align=left;verticalAlign=middle;spacingTop=-1;spacingLeft=3;spacingRight=3;rotatable=0;labelPosition=right;points=[];portConstraint=eastwest;strokeColor=inherit;" vertex="1" parent="CWbv-JI5EEvhGblv0z73-18">
          <mxGeometry y="70" width="260" height="8" as="geometry" />
        </mxCell>
        <mxCell id="CWbv-JI5EEvhGblv0z73-21" value="+ cadastrar(String nome, String regiao): String" style="text;strokeColor=none;fillColor=none;align=left;verticalAlign=top;spacingLeft=4;spacingRight=4;overflow=hidden;rotatable=0;points=[[0,0.5],[1,0.5]];portConstraint=eastwest;whiteSpace=wrap;html=1;" vertex="1" parent="CWbv-JI5EEvhGblv0z73-18">
          <mxGeometry y="78" width="260" height="26" as="geometry" />
        </mxCell>
        <mxCell id="CWbv-JI5EEvhGblv0z73-22" value="Chuva" style="swimlane;fontStyle=1;align=center;verticalAlign=top;childLayout=stackLayout;horizontal=1;startSize=26;horizontalStack=0;resizeParent=1;resizeParentMax=0;resizeLast=0;collapsible=1;marginBottom=0;whiteSpace=wrap;html=1;" vertex="1" parent="1">
          <mxGeometry x="340" y="-70" width="380" height="112" as="geometry" />
        </mxCell>
        <mxCell id="CWbv-JI5EEvhGblv0z73-23" value="- intensidade: String&lt;div&gt;- nivelRio: double&lt;/div&gt;&lt;div&gt;- chuvaAcumulada: double&lt;/div&gt;" style="text;strokeColor=none;fillColor=none;align=left;verticalAlign=top;spacingLeft=4;spacingRight=4;overflow=hidden;rotatable=0;points=[[0,0.5],[1,0.5]];portConstraint=eastwest;whiteSpace=wrap;html=1;" vertex="1" parent="CWbv-JI5EEvhGblv0z73-22">
          <mxGeometry y="26" width="380" height="54" as="geometry" />
        </mxCell>
        <mxCell id="CWbv-JI5EEvhGblv0z73-24" value="" style="line;strokeWidth=1;fillColor=none;align=left;verticalAlign=middle;spacingTop=-1;spacingLeft=3;spacingRight=3;rotatable=0;labelPosition=right;points=[];portConstraint=eastwest;strokeColor=inherit;" vertex="1" parent="CWbv-JI5EEvhGblv0z73-22">
          <mxGeometry y="80" width="380" height="8" as="geometry" />
        </mxCell>
        <mxCell id="CWbv-JI5EEvhGblv0z73-25" value="+ verificarEnchente(double nivelRio, double chuvaAcumulada): String" style="text;strokeColor=none;fillColor=none;align=left;verticalAlign=top;spacingLeft=4;spacingRight=4;overflow=hidden;rotatable=0;points=[[0,0.5],[1,0.5]];portConstraint=eastwest;whiteSpace=wrap;html=1;" vertex="1" parent="CWbv-JI5EEvhGblv0z73-22">
          <mxGeometry y="88" width="380" height="24" as="geometry" />
        </mxCell>
        <mxCell id="CWbv-JI5EEvhGblv0z73-30" value="Ventania" style="swimlane;fontStyle=1;align=center;verticalAlign=top;childLayout=stackLayout;horizontal=1;startSize=26;horizontalStack=0;resizeParent=1;resizeParentMax=0;resizeLast=0;collapsible=1;marginBottom=0;whiteSpace=wrap;html=1;" vertex="1" parent="1">
          <mxGeometry x="660" y="230" width="340" height="122" as="geometry" />
        </mxCell>
        <mxCell id="CWbv-JI5EEvhGblv0z73-31" value="- direcaoVento: String&lt;div&gt;- velocidadeVento: double&lt;/div&gt;&lt;div&gt;- tempo: double&lt;/div&gt;" style="text;strokeColor=none;fillColor=none;align=left;verticalAlign=top;spacingLeft=4;spacingRight=4;overflow=hidden;rotatable=0;points=[[0,0.5],[1,0.5]];portConstraint=eastwest;whiteSpace=wrap;html=1;" vertex="1" parent="CWbv-JI5EEvhGblv0z73-30">
          <mxGeometry y="26" width="340" height="54" as="geometry" />
        </mxCell>
        <mxCell id="CWbv-JI5EEvhGblv0z73-32" value="" style="line;strokeWidth=1;fillColor=none;align=left;verticalAlign=middle;spacingTop=-1;spacingLeft=3;spacingRight=3;rotatable=0;labelPosition=right;points=[];portConstraint=eastwest;strokeColor=inherit;" vertex="1" parent="CWbv-JI5EEvhGblv0z73-30">
          <mxGeometry y="80" width="340" height="8" as="geometry" />
        </mxCell>
        <mxCell id="CWbv-JI5EEvhGblv0z73-33" value="+ avaliarRisco(double velocidadeVento, double tempo): String" style="text;strokeColor=none;fillColor=none;align=left;verticalAlign=top;spacingLeft=4;spacingRight=4;overflow=hidden;rotatable=0;points=[[0,0.5],[1,0.5]];portConstraint=eastwest;whiteSpace=wrap;html=1;" vertex="1" parent="CWbv-JI5EEvhGblv0z73-30">
          <mxGeometry y="88" width="340" height="34" as="geometry" />
        </mxCell>
        <mxCell id="CWbv-JI5EEvhGblv0z73-37" style="edgeStyle=orthogonalEdgeStyle;rounded=0;orthogonalLoop=1;jettySize=auto;html=1;entryX=0.993;entryY=0.039;entryDx=0;entryDy=0;entryPerimeter=0;endArrow=blockThin;endFill=0;" edge="1" parent="1" source="CWbv-JI5EEvhGblv0z73-30" target="CWbv-JI5EEvhGblv0z73-2">
          <mxGeometry relative="1" as="geometry" />
        </mxCell>
        <mxCell id="CWbv-JI5EEvhGblv0z73-38" style="edgeStyle=orthogonalEdgeStyle;rounded=0;orthogonalLoop=1;jettySize=auto;html=1;entryX=0.621;entryY=-0.011;entryDx=0;entryDy=0;entryPerimeter=0;endArrow=blockThin;endFill=0;" edge="1" parent="1" source="CWbv-JI5EEvhGblv0z73-22" target="CWbv-JI5EEvhGblv0z73-2">
          <mxGeometry relative="1" as="geometry" />
        </mxCell>
      </root>
    </mxGraphModel>
  </diagram>
</mxfile>
